<svg xmlns="http://www.w3.org/2000/svg"  viewBox="0 0 100 100" width="100px" height="100px"><path fill="#c7ede6" d="M87.2,56.7c1.1-2.2,1.8-4.6,1.8-7.2c0-6.6-4.2-12.3-10-14.5c0,0,0,0,0,0c0-11.6-9.4-21-21-21 c-9.8,0-18,6.7-20.3,15.8c-1.5-0.5-3-0.8-4.7-0.8c-7.7,0-14,5.8-14.9,13.3C12.9,43.4,9,48,9,53.5C9,59.9,14.1,65,20.5,65 c0.2,0,0.4,0,0.5,0c0,0.2,0,0.3,0,0.5C21,76.8,30.2,86,41.5,86c6.4,0,12.2-3,15.9-7.6c2.2,2.2,5.2,3.6,8.6,3.6 c4.7,0,8.7-2.7,10.7-6.5c1.1,0.3,2.2,0.5,3.3,0.5c6.1,0,11-4.9,11-11C91,61.7,89.5,58.7,87.2,56.7z"/><path fill="#fdfcef" d="M79.9,64.5c0,0,3.6,0,6.1,0s4.5-2,4.5-4.5c0-2.3-1.8-4.2-4.1-4.5c0-0.2,0.1-0.4,0.1-0.5c0-2.5-2-4.5-4.5-4.5 c-1.4,0-2.7,0.7-3.5,1.7c-0.1-2.6-2.3-4.7-5-4.7c-2.8,0-5,2.2-5,5c0,0.4,0.1,0.9,0.2,1.3C68,53,67.1,52.5,66,52.5 c-1.8,0-3.2,1.3-3.5,3.1c-0.2,0-0.4-0.1-0.5-0.1c-2.5,0-4.5,2-4.5,4.5s2,4.5,4.5,4.5s9.5,0,9.5,0h5.4V65h3V64.5z"/><path fill="#472b29" d="M73.5,47c-3,0-5.5,2.5-5.5,5.5c0,0,0,0,0,0c-0.6-0.4-1.3-0.5-2-0.5c-1.8,0-3.4,1.3-3.9,3c0,0-0.1,0-0.1,0 c-2.8,0-5,2.2-5,5s2.2,5,5,5h14.9c0.3,0,0.5-0.2,0.5-0.5S77.2,64,76.9,64H62c-2.2,0-4-1.8-4-4s1.8-4,4-4c0.1,0,0.2,0,0.3,0l0.1,0 c0,0,0,0,0.1,0c0.2,0,0.5-0.2,0.5-0.4c0.2-1.5,1.5-2.6,3-2.6c0.9,0,1.7,0.4,2.3,1.1c0.1,0.1,0.2,0.2,0.4,0.2c0.1,0,0.2,0,0.2-0.1 c0.2-0.1,0.3-0.3,0.3-0.6c-0.1-0.4-0.2-0.8-0.2-1.2c0-2.5,2-4.5,4.5-4.5c2.4,0,4.3,1.9,4.5,4.3c0,0.2,0.2,0.4,0.3,0.5 c0.1,0,0.1,0,0.2,0c0.2,0,0.3-0.1,0.4-0.2c0.8-1,1.9-1.5,3.1-1.5c2.2,0,4,1.8,4,4c0,0.1,0,0.2,0,0.3l0,0.1c0,0.1,0,0.3,0.1,0.4 s0.2,0.2,0.3,0.2c2.1,0.2,3.6,1.9,3.6,4c0,2.2-1.8,4-4,4h-6.1c-0.3,0-0.5,0.2-0.5,0.5s0.2,0.5,0.5,0.5H86c2.8,0,5-2.2,5-5 c0-2.4-1.7-4.4-4-4.9c0,0,0-0.1,0-0.1c0-2.8-2.2-5-5-5c-1.2,0-2.3,0.4-3.2,1.2C78.2,48.8,76.1,47,73.5,47L73.5,47z"/><path fill="#472b29" d="M72 54c-1.4 0-2.6 1-2.9 2.3-.4-.2-.8-.3-1.2-.3-1.2 0-2.2.9-2.4 2.1-.2 0-.4-.1-.6-.1-1.5 0-2.8 1.2-2.9 2.7 0 .1.1.3.2.3 0 0 0 0 0 0 .1 0 .2-.1.2-.2.1-1.3 1.2-2.3 2.4-2.3.2 0 .5 0 .7.1 0 0 0 0 .1 0 .1 0 .1 0 .2-.1.1 0 .1-.1.1-.2 0-1 .8-1.9 1.9-1.9.4 0 .9.2 1.2.5 0 0 .1.1.2.1 0 0 .1 0 .1 0 .1 0 .1-.1.2-.2.1-1.3 1.2-2.3 2.5-2.3.2 0 .4 0 .7.1 0 0 0 0 .1 0 .1 0 .2-.1.2-.2 0-.1 0-.3-.2-.3C72.5 54 72.3 54 72 54L72 54zM85.9 55.5c-1.3 0-2.5.9-2.9 2.2 0 .1 0 .3.2.3 0 0 0 0 .1 0 .1 0 .2-.1.2-.2.3-1.1 1.3-1.8 2.4-1.8.1 0 .2 0 .3 0 0 0 0 0 0 0 .1 0 .2-.1.2-.2 0-.1-.1-.3-.2-.3C86.2 55.5 86 55.5 85.9 55.5L85.9 55.5z"/><path fill="#fff" d="M15.4 51H5.5C5.2 51 5 50.8 5 50.5S5.2 50 5.5 50h9.9c.3 0 .5.2.5.5S15.7 51 15.4 51zM18.5 51h-1c-.3 0-.5-.2-.5-.5s.2-.5.5-.5h1c.3 0 .5.2.5.5S18.8 51 18.5 51zM23.5 53h-9c-.3 0-.5-.2-.5-.5s.2-.5.5-.5h9c.3 0 .5.2.5.5S23.8 53 23.5 53zM12.5 53h-1c-.3 0-.5-.2-.5-.5s.2-.5.5-.5h1c.3 0 .5.2.5.5S12.8 53 12.5 53zM9.5 53h-2C7.2 53 7 52.8 7 52.5S7.2 52 7.5 52h2c.3 0 .5.2.5.5S9.8 53 9.5 53zM15.5 55h-2c-.3 0-.5-.2-.5-.5s.2-.5.5-.5h2c.3 0 .5.2.5.5S15.8 55 15.5 55zM18.5 46c-.2 0-.8 0-1 0-.3 0-.5.2-.5.5s.2.5.5.5c.2 0 .8 0 1 0 .3 0 .5-.2.5-.5S18.8 46 18.5 46zM18.5 48c-.2 0-4.8 0-5 0-.3 0-.5.2-.5.5s.2.5.5.5c.2 0 4.8 0 5 0 .3 0 .5-.2.5-.5S18.8 48 18.5 48zM23.5 50c-.2 0-2.8 0-3 0-.3 0-.5.2-.5.5s.2.5.5.5c.2 0 2.8 0 3 0 .3 0 .5-.2.5-.5S23.8 50 23.5 50z"/><g><path fill="#fff" d="M67.5 22h-10c-.3 0-.5-.2-.5-.5s.2-.5.5-.5h10c.3 0 .5.2.5.5S67.8 22 67.5 22zM71.5 22h-2c-.3 0-.5-.2-.5-.5s.2-.5.5-.5h2c.3 0 .5.2.5.5S71.8 22 71.5 22zM76.5 24h-10c-.3 0-.5-.2-.5-.5s.2-.5.5-.5h10c.3 0 .5.2.5.5S76.8 24 76.5 24zM64.5 24h-1c-.3 0-.5-.2-.5-.5s.2-.5.5-.5h1c.3 0 .5.2.5.5S64.8 24 64.5 24zM61.4 24h-1.9c-.3 0-.5-.2-.5-.5s.2-.5.5-.5h1.9c.3 0 .5.2.5.5S61.7 24 61.4 24zM70.5 20h-5c-.3 0-.5-.2-.5-.5s.2-.5.5-.5h5c.3 0 .5.2.5.5S70.8 20 70.5 20zM67.5 26h-2c-.3 0-.5-.2-.5-.5s.2-.5.5-.5h2c.3 0 .5.2.5.5S67.8 26 67.5 26z"/></g><g><path fill="#472b29" d="M31.4,69h-0.9c-0.3,0-0.5-0.2-0.5-0.5s0.2-0.5,0.5-0.5h0.9c0.3,0,0.5,0.2,0.5,0.5S31.7,69,31.4,69z"/></g><g><path fill="#a1d3a2" d="M72.4,44.3v19.5c0,4.1-3.4,7.5-7.5,7.5H37.1c-4.1,0-7.5-3.4-7.5-7.5V36.2c0-4.1,3.4-7.5,7.5-7.5h27.8 c3.4,0,6.3,2.3,7.2,5.5"/><path fill="#472b29" d="M64.9,72H37.1c-4.5,0-8.2-3.7-8.2-8.2V36.2c0-4.5,3.7-8.2,8.2-8.2h27.8c3.7,0,6.9,2.5,7.9,6 c0.1,0.4-0.1,0.8-0.5,0.9c-0.4,0.1-0.8-0.1-0.9-0.5c-0.8-2.9-3.5-5-6.5-5H37.1c-3.7,0-6.8,3-6.8,6.8v27.5c0,3.7,3,6.8,6.8,6.8h27.8 c3.7,0,6.8-3,6.8-6.8V44.3c0-0.4,0.3-0.7,0.7-0.7s0.7,0.3,0.7,0.7v19.5C73.1,68.3,69.4,72,64.9,72z"/></g><g><path fill="#472b29" d="M68.5,58.9c-0.3,0-0.5-0.2-0.5-0.5v-3.7c0-0.3,0.2-0.5,0.5-0.5s0.5,0.2,0.5,0.5v3.7 C69,58.7,68.8,58.9,68.5,58.9z"/></g><g><path fill="#472b29" d="M68.5,52.4c-0.3,0-0.5-0.2-0.5-0.5V50c0-0.3,0.2-0.5,0.5-0.5S69,49.7,69,50v1.9C69,52.2,68.8,52.4,68.5,52.4z"/></g><g><path fill="#472b29" d="M64.2,67.9H37.8c-2.6,0-4.8-2.1-4.8-4.7V36.7c0-2.6,2.1-4.7,4.8-4.7h24c0.3,0,0.5,0.2,0.5,0.5S62,33,61.8,33 h-24c-2.1,0-3.8,1.7-3.8,3.7v26.4c0,2.1,1.7,3.7,3.8,3.7h26.5c2.1,0,3.8-1.7,3.8-3.7v-2.2c0-0.3,0.2-0.5,0.5-0.5s0.5,0.2,0.5,0.5 v2.2C69,65.8,66.9,67.9,64.2,67.9z"/></g><g><path fill="#00ac9c" d="M50.8,61.5L50.8,61.5c-0.1,0-0.2,0-0.2,0c-0.4,0-0.7-0.1-1-0.4l-7.9-7.7c-0.3-0.3-0.4-0.6-0.4-1 c0-0.4,0.1-0.7,0.4-1c0.3-0.3,0.6-0.4,1-0.4s0.7,0.1,1,0.4l6.8,7l22.8-21.8c0.3-0.3,0.6-0.4,1-0.4s0.7,0.1,1,0.4 c0.3,0.3,0.4,0.6,0.4,1c0,0.4-0.1,0.7-0.4,1L51.9,61.1c-0.1,0.1-0.2,0.2-0.4,0.3c0,0-0.1,0-0.1,0.1c-0.1,0-0.2,0-0.3,0.1 C51,61.5,50.9,61.5,50.8,61.5L50.8,61.5L50.8,61.5z"/><path fill="#472b29" d="M74.2,36.6c0.2,0,0.5,0.1,0.7,0.3c0.4,0.4,0.4,0.9,0,1.3L51.5,60.7c-0.1,0.1-0.2,0.1-0.2,0.2c0,0-0.1,0-0.1,0 c-0.1,0-0.1,0-0.2,0c0,0-0.1,0-0.1,0c0,0-0.1,0-0.1,0c0,0,0,0,0,0c-0.1,0-0.1,0-0.2,0c-0.2,0-0.5-0.1-0.6-0.3L42,53 c-0.4-0.4-0.4-0.9,0-1.3c0.2-0.2,0.4-0.3,0.7-0.3s0.5,0.1,0.7,0.3l7.1,7.3l23.1-22.2C73.8,36.7,74,36.6,74.2,36.6 M74.2,35.6 c-0.5,0-1,0.2-1.4,0.6L50.5,57.6L44.1,51c-0.4-0.4-0.9-0.6-1.4-0.6c-0.5,0-1,0.2-1.4,0.6c-0.4,0.4-0.6,0.8-0.6,1.4 c0,0.5,0.2,1,0.6,1.4l7.9,7.7c0.4,0.3,0.8,0.5,1.3,0.5c0,0,0.1,0,0.1,0c0.1,0,0.1,0,0.2,0c0.1,0,0.2,0,0.3,0c0.1,0,0.2,0,0.3-0.1 c0.1,0,0.2-0.1,0.2-0.1c0.2-0.1,0.4-0.2,0.5-0.4l23.4-22.6c0.4-0.4,0.6-0.8,0.6-1.4s-0.2-1-0.6-1.4C75.2,35.8,74.8,35.6,74.2,35.6 L74.2,35.6z"/></g><g><path fill="#fdfcef" d="M37.5,76.5c0,0,1.6,0,3.5,0s3.5-1.6,3.5-3.5c0-1.8-1.3-3.2-3.1-3.5c0-0.2,0.1-0.4,0.1-0.5 c0-1.9-1.6-3.5-3.5-3.5c-1,0-2,0.5-2.6,1.2c-0.4-1.8-2-3.2-3.9-3.2c-2.2,0-4,1.8-4,4c0,0.2,0,0.4,0.1,0.6c-0.4-0.3-1-0.6-1.6-0.6 c-1.2,0-2.2,0.9-2.5,2.1c-0.2,0-0.4-0.1-0.5-0.1c-1.9,0-3.5,1.6-3.5,3.5s1.6,3.5,3.5,3.5s7.5,0,7.5,0V77h7V76.5z"/><path fill="#472b29" d="M39.3 72c-.1 0-.3-.1-.3-.3 0-1.2 1-2.2 2.2-2.2 0 0 .7 0 1.2.1.1 0 .2.2.2.3 0 .1-.2.2-.3.2C41.9 70 41.2 70 41.2 70c-.9 0-1.7.8-1.7 1.7C39.5 71.9 39.4 72 39.3 72zM32.5 76A.5.5 0 1 0 32.5 77 .5.5 0 1 0 32.5 76z"/><path fill="#472b29" d="M41,77h-3.5c-0.3,0-0.5-0.2-0.5-0.5s0.2-0.5,0.5-0.5H41c1.7,0,3-1.3,3-3c0-1.5-1.1-2.8-2.6-3 c-0.1,0-0.3-0.1-0.3-0.2s-0.1-0.2-0.1-0.4c0-0.2,0-0.3,0-0.5c0-1.7-1.3-3-3-3c-0.8,0-1.6,0.4-2.2,1c-0.1,0.1-0.3,0.2-0.5,0.1 c-0.2,0-0.3-0.2-0.4-0.4c-0.3-1.6-1.8-2.8-3.4-2.8c-1.9,0-3.5,1.6-3.5,3.5c0,0.1,0,0.3,0,0.4c0,0.2-0.1,0.4-0.2,0.5 s-0.4,0.1-0.6,0C26.9,68.2,26.4,68,26,68c-1,0-1.8,0.7-2,1.6c0,0.3-0.3,0.4-0.6,0.4c-0.2,0-0.3,0-0.5,0c-1.7,0-3,1.3-3,3 s1.3,3,3,3h7.5c0.3,0,0.5,0.2,0.5,0.5S30.8,77,30.5,77H23c-2.2,0-4-1.8-4-4s1.8-4,4-4c0.1,0,0.1,0,0.2,0c0.4-1.2,1.5-2,2.8-2 c0.3,0,0.7,0.1,1,0.2c0.2-2.3,2.1-4.2,4.5-4.2c1.8,0,3.5,1.1,4.2,2.8c0.7-0.5,1.5-0.8,2.3-0.8c2.2,0,4,1.8,4,4c0,0,0,0.1,0,0.1 c1.7,0.4,3,2,3,3.9C45,75.2,43.2,77,41,77z"/><path fill="#472b29" d="M35.5,76c-0.2,0-0.8,0-1,0c-0.3,0-0.5,0.2-0.5,0.5s0.2,0.5,0.5,0.5c0.2,0,0.8,0,1,0c0.3,0,0.5-0.2,0.5-0.5 S35.8,76,35.5,76z"/></g></svg>